<svg width="147" height="110" viewBox="0 0 147 110" fill="none" xmlns="http://www.w3.org/2000/svg">
<g clip-path="url(#clip0_146_14)">
<path d="M61 39C59.3744 36.926 60.3636 36.7879 61 39C59.8485 37.2727 59.894 37.6818 58.2273 36.5C56.5909 35.2879 54.7121 34.3637 52.5909 33.7273C50.5 33.0909 48.1818 32.7728 45.6364 32.7728C40.8788 32.7728 36.697 33.9546 33.0909 36.3182C29.5152 38.6818 26.7273 42.1212 24.7273 46.6364C22.7273 51.1212 21.7273 56.6061 21.7273 63.0909C21.7273 69.5758 22.7121 75.0909 24.6818 79.6364C26.6515 84.1818 29.4394 87.6515 33.0455 90.0455C36.6515 92.4091 40.9091 93.5909 45.8182 93.5909C50.2727 93.5909 54.0758 92.8031 57.2273 91.2273C60.4091 89.6212 62.8334 87.3637 64.5 84.4546C66.197 81.5455 67 77.4697 67 73.5C67 73.5 68 74 71 74C74 74 48 74 48 74L54 60H66.5H86V72.1131C80.8182 92.7273 81.5 91.5 80.8182 92.7273C77.5197 98.6652 72.6061 103.091 66.5455 106.273C60.4849 109.424 53.6364 110 45.8182 110C37.0909 110 29.3334 109.076 22.7273 105.227C16.1212 101.349 10.9697 95.8485 7.27277 88.7273C3.6061 81.5758 1.77277 73.0909 1.77277 63.2728C1.77277 55.7273 2.86367 49 5.04549 43.0909C7.25761 37.1515 10.3485 32.1212 14.3182 28C18.2879 23.8788 22.9091 20.7425 28.1818 18.5909C33.4546 16.4394 38.8485 15 45 15C50.2727 15 55.5 16.1364 60.0455 17.6818C64.5909 19.197 65 19.5 69.5 23C68.5 25.5 62 16.5 70 23.5C65.3836 31.207 69.5 24 65.5 31L61 39Z" 
fill="white"/>
</g>
<path d="M81 92L59.0964 106L72.3976 60L85.6988 15H119.5L126 37L133 60L147 109H128.494L109.988 31H97.2651L81 92ZM76.4458 74L86.8555 60H103.364H118.084L130.03 70.8338V74H125.024H120.398H109.988H103.364H94.9519H86.8555H76.4458Z" 
fill="white"/>
<defs>
<clipPath id="clip0_146_14">
<rect width="85" height="97" fill="white" transform="translate(0 13)"/>
</clipPath>
</defs>
</svg>
